# AST/ASF file generated using VICON BodyLanguage
# -----------------------------------------------
:version 1.10
:name VICON
:units
  mass 1.0
  length 0.45
  angle deg
:documentation
   .ast/.asf automatically generated from VICON data using
   VICON BodyBuilder and BodyLanguage model FoxedUp or BRILLIANT.MOD
:root
   order TX TY TZ RX RY RZ
   axis XYZ
   position 0 0 0  
   orientation 0 0 0 
:bonedata
  begin
     id 1 
     name lhipjoint
     direction 0.630305 -0.712092 0.309259 
     length 2.29033 
     axis 0 0 0  XYZ
  end
  begin
     id 2 
     name lfemur
     direction 0.34202 -0.939693 0  
     length 6.43538  
     axis 0 0 20  XYZ
    dof rx ry rz
    limits (-160.0 20.0)
           (-70.0 70.0)
           (-60.0 70.0)
  end
  begin
     id 3 
     name ltibia
     direction 0.34202 -0.939693 0   
     length 7.43097   
     axis 0 0 20   XYZ
    dof rx
    limits (-10.0 170.0)
  end
  begin
     id 4 
     name lfoot
     direction 0.0334653 -0.0919451 0.995202   
     length 1.78438   
     axis -90 7.62852e-016 20   XYZ
    dof rx rz
    limits (-45.0 90.0)
           (-70.0 20.0)
  end
  begin
     id 5 
     name ltoes
     direction 1.53535e-011 -4.21933e-011 1   
     length 0.90832   
     axis -90 7.62852e-016 20   XYZ
    dof rx
    limits (-90.0 20.0)
  end
  begin
     id 6 
     name rhipjoint
     direction -0.682059 -0.67077 0.291312   
     length 2.43143  
     axis 0 0 0  XYZ 
  end
  begin
     id 7 
     name rfemur
     direction -0.34202 -0.939693 0   
     length 6.63488   
     axis 0 0 -20   XYZ
    dof rx ry rz
    limits (-160.0 20.0)
           (-70.0 70.0)
           (-70.0 60.0)
  end
  begin
     id 8 
     name rtibia
     direction -0.34202 -0.939693 0   
     length 6.86532   
     axis 0 0 -20   XYZ
    dof rx
    limits (-10.0 170.0)
 end
 begin
     id 9 
     name rfoot
     direction -0.105199 -0.289033 0.951521   
     length 1.77126  
     axis -90 -7.62852e-016 -20   XYZ
    dof rx rz
    limits (-45.0 90.0)
           (-20.0 70.0)
  end
  begin
     id 10 
     name rtoes
     direction -1.53551e-011 -4.21978e-011 1   
     length 0.889273   
     axis -90 -7.62852e-016 -20   XYZ
    dof rx
    limits (-90.0 20.0)
  end
  begin
     id 11 
     name lowerback
     direction -0.0514305 0.998089 0.034245   
     length 2.02077   
     axis 0 0 0   XYZ
    dof rx ry rz
    limits (-20.0 45.0)
           (-30.0 30.0)
           (-30.0 30.0)
  end
  begin
     id 12 
     name upperback
     direction 0.0203189 0.999449 -0.0262315   
     length 2.01413   
     axis 0 0 0   XYZ
    dof rx ry rz
    limits (-20.0 45.0)
           (-30.0 30.0)
           (-30.0 30.0)
  end
  begin
     id 13 
     name thorax
     direction 0.0452736 0.998142 -0.0407729   
     length 2.02986   
     axis 0 0 0   XYZ
    dof rx ry rz
    limits (-20.0 45.0)
           (-30.0 30.0)
           (-30.0 30.0)
  end
  begin
     id 14 
     name lowerneck
     direction -0.0180464 0.999645 -0.0195774   
     length 1.59034   
     axis 0 0 0   XYZ
    dof rx ry rz
    limits (-20.0 45.0)
           (-30.0 30.0)
           (-30.0 30.0)
  end
  begin
     id 15 
     name upperneck
     direction 0.0732272 0.979935 -0.18538   
     length 1.57486   
     axis 0 0 0   XYZ
    dof rx ry rz
    limits (-20.0 45.0)
           (-30.0 30.0)
           (-30.0 30.0)
  end
  begin
     id 16
     name head
     direction 0.0252963 0.997909 -0.059472  
     length 1.60334  
     axis 0 0 0   XYZ
    dof rx ry rz
    limits (-20.0 45.0)
           (-30.0 30.0)
           (-30.0 30.0)
  end
  begin
     id 17 
     name lclavicle
     direction 0.943819 0.330449 0.00315172  
     length 3.50322  
     axis 0 0 0   XYZ
    dof ry rz
    limits (-20.0 10.0)
           (0.0 20.0)
  end
  begin
     id 18 
     name lhumerus
     direction 1 -4.48949e-011 2.22502e-028   
     length 4.63208   
     axis 180 -30 -90   XYZ
    dof rx ry rz
    limits (-60.0 90.0)
           (-90.0 90.0)
           (-90.0 90.0)
  end
  begin
     id 19
     name lradius
     direction 1 -4.48967e-011 -4.10197e-027   
     length 3.41924   
     axis 180 -30 -90   XYZ
    dof rx
    limits (-10.0 170.0)
  end
  begin
     id 20
     name lwrist
     direction 1 -4.48987e-011 -1.24264e-027   
     length 1.70962   
     axis 2.50585e-015 90 90   XYZ
    dof ry
    limits (-180.0 0.0)
 end
  begin
     id 21 
     name lhand
     direction 1 -4.48983e-011 -2.48528e-027   
     length 0.62537   
     axis 1.58582e-015 90 90   XYZ
    dof rx rz
    limits (-90.0 90.0)
           (-45.0 45.0)
  end
  begin
     id 22 
     name lfingers
     direction 1 -4.48896e-011 -4.97056e-027   
     length 0.50419   
     axis 3.17164e-015 90 90   XYZ
    dof rx
    limits (0.0 90.0)
  end
  begin
     id 23
     name lthumb
     direction 0.707107 -6.34803e-011 0.707107   
     length 0.723919   
     axis -90 45 2.85299e-015   XYZ
    dof rx rz
    limits (-45.0 45.0)
           (-45.0 45.0)
  end
  begin
     id 24 
     name rclavicle
     direction -0.964499 0.260664 -0.0423695   
     length 3.91997  
     axis 0 0 0   XYZ 
    dof ry rz
    limits (-10.0 20.0)
           (-20.0 0.0)
  end
  begin
     id 25 
     name rhumerus
     direction -1 -4.48957e-011 -1.98656e-027  
     length 4.4064   
     axis 180 30 90   XYZ
    dof rx ry rz
    limits (-90.0 60.0)
           (-90.0 90.0)
           (-90.0 90.0)
  end
  begin
     id 26 
     name rradius
     direction -1 -4.48968e-011 1.96972e-027   
     length 3.44675   
     axis 180 30 90   XYZ
    dof rx
    limits (-10.0 170.0)
  end
  begin
     id 27 
     name rwrist
     direction -1 -4.48974e-011 -1.24264e-027   
     length 1.72338   
     axis 2.50585e-015 -90 -90   XYZ
    dof ry
    limits (-180.0 0.0)
  end
  begin
     id 28
     name rhand
     direction -1 -4.48901e-011 -2.48528e-027   
     length 0.513674   
     axis 1.58582e-015 -90 -90   XYZ
    dof rx rz
    limits (-90.0 90.0)
           (-45.0 45.0)
  end
  begin
     id 29
     name rfingers
     direction -1 -4.48946e-011 -4.97056e-027   
     length 0.414137   
     axis 3.17164e-015 -90 -90   XYZ
    dof rx
    limits (0.0 90.0)
  end
  begin
     id 30
     name rthumb
     direction -0.707107 -6.34859e-011 0.707107   
     length 0.59462   
     axis -90 -45 -2.85299e-015   XYZ
    dof rx rz
    limits (-45.0 45.0)
           (-45.0 45.0)
  end
:hierarchy
  begin
    root lhipjoint rhipjoint lowerback
    lhipjoint lfemur
    lfemur ltibia
    ltibia lfoot
    lfoot ltoes
    rhipjoint rfemur
    rfemur rtibia
    rtibia rfoot
    rfoot rtoes
    lowerback upperback
    upperback thorax
    thorax lowerneck lclavicle rclavicle
    lowerneck upperneck
    upperneck head
    lclavicle lhumerus
    lhumerus lradius
    lradius lwrist
    lwrist lhand lthumb
    lhand lfingers
    rclavicle rhumerus
    rhumerus rradius
    rradius rwrist
    rwrist rhand rthumb
    rhand rfingers
  end

#!OML:ASF E:\inclinewalkrobotboard\Project 1\Capture day 1\Session 1\subject1.ASF
:FULLY-SPECIFIED
:DEGREES
1
root 9.61507 16.7954 -35.8305 10.5836 -6.5461 -0.499259
lowerback -7.43547 0.998096 -5.6076
upperback 1.36098 1.79907 1.17551
thorax 5.39498 0.691951 4.60169
lowerneck -3.70247 -0.407618 -8.54107
upperneck 14.0629 -1.44961 12.1472
head 4.91595 -0.435485 5.16668
rclavicle -1.14456e-014 -4.24902e-015
rhumerus -44.1487 -43.974 -55.4707
rradius 16.3721
rwrist 32.7014
rhand -17.5143 -41.4228
rfingers 7.12502
rthumb 8.73908 -71.2219
lclavicle -1.14456e-014 -4.24902e-015
lhumerus -27.3122 11.6575 83.714
lradius 14.2931
lwrist -34.4156
lhand -24.5569 -22.5653
lfingers 7.12502
lthumb 1.9395 7.40567
rfemur -10.144 5.338 15.2477
rtibia 11.3329
rfoot -14.983 -1.66748
rtoes 8.8184
lfemur -6.16954 -7.74248 -16.7709
ltibia 6.0279
lfoot -18.9701 15.6126
ltoes -27.0964
2
root 9.59942 16.7965 -35.8447 10.404 -6.63037 -0.0413316
lowerback -7.11196 0.960401 -6.04926
upperback 1.41281 1.77312 1.13855
thorax 5.2591 0.669521 4.80033
lowerneck -1.38101 0.576429 -6.80981
upperneck 11.1173 0.109766 9.96726
head 3.48698 0.206962 4.1794
rclavicle 1.84497e-014 -6.31141e-015
rhumerus -43.6386 -43.8734 -55.8863
rradius 16.2989
rwrist 32.8072
rhand -17.8734 -41.8047
rfingers 7.12502
rthumb 8.39252 -71.6179
lclavicle 1.84497e-014 -6.31141e-015
lhumerus -27.0977 11.204 84.1454
lradius 14.6938
lwrist -33.8203
lhand -24.5855 -23.006
lfingers 7.12502
lthumb 1.91186 6.96523
rfemur -10.3204 5.41197 14.7908
rtibia 11.839
rfoot -16.9412 -2.75669
rtoes -12.0238
lfemur -6.02904 -7.66891 -17.2554
ltibia 5.9689
lfoot -18.6618 15.8961
ltoes -31.8945
3
root 9.58003 16.7972 -35.8584 10.2154 -6.71301 0.364465
lowerback -6.76305 0.978646 -6.47184
upperback 1.45129 1.81322 1.13373
thorax 5.08589 0.68204 5.02803
lowerneck 2.09506 1.67334 -3.55406
upperneck 8.38501 1.92879 4.68836
head 2.21444 0.960164 2.14146
rclavicle -4.21175e-015 -2.48481e-015
rhumerus -43.7452 -44.4182 -55.4464
rradius 16.1519
rwrist 33.4383
rhand -18.1506 -42.1191
rfingers 7.12502
rthumb 8.12496 -71.9429
lclavicle -4.21175e-015 -2.48481e-015
lhumerus -26.8441 10.4393 84.6775
lradius 15.0827
lwrist -33.0093
lhand -24.2047 -23.155
lfingers 7.12502
lthumb 2.27962 6.81252
rfemur -10.5582 5.54879 14.4108
rtibia 12.4972
rfoot -19.2468 -3.59687
rtoes -23.7755
lfemur -5.91129 -7.64646 -17.6499
ltibia 5.95388
lfoot -18.0454 16.3378
ltoes -37.3427
4
root 9.55857 16.796 -35.8688 10.1069 -6.72569 0.591302
lowerback -6.67844 1.02167 -6.61127
upperback 1.56262 1.88023 1.13359
thorax 5.14277 0.705732 5.11325
lowerneck 1.85021 1.67761 -4.25198
upperneck 8.56179 1.85594 5.95683
head 2.31359 0.935386 2.70138
rclavicle -4.96962e-017 1.91827e-014
rhumerus -43.924 -44.8517 -55.0678
rradius 16.1463
rwrist 33.8281
rhand -18.2706 -41.7462
rfingers 7.12502
rthumb 8.00912 -71.5744
lclavicle -4.96962e-017 1.91827e-014
lhumerus -26.4976 9.08049 85.3576
lradius 15.5379
lwrist -31.655
lhand -23.5681 -22.8352
lfingers 7.12502
lthumb 2.89444 7.12488
rfemur -10.8318 5.90517 14.1623
rtibia 12.6978
rfoot -20.7119 -4.00498
rtoes -36.7969
lfemur -5.89838 -7.63884 -17.7938
ltibia 5.98416
lfoot -17.7143 16.5365
ltoes -41.3171
5
root 9.53281 16.7941 -35.8782 9.93753 -6.80979 0.863028
lowerback -6.10259 1.03801 -6.67694
upperback 1.4016 1.86545 1.04586
thorax 4.64876 0.72181 5.03332
lowerneck 0.685078 1.43081 -5.04997
upperneck 9.76161 1.39542 7.72103
head 2.96085 0.750128 3.5074
rclavicle 1.64246e-014 -1.48095e-014
rhumerus -44.1724 -44.2625 -55.2342
rradius 16.296
rwrist 33.3763
rhand -18.5633 -41.7752
rfingers 7.12502
rthumb 7.72662 -71.6141
lclavicle 1.64246e-014 -1.48095e-014
lhumerus -26.7662 7.593 85.8253
lradius 16.1784
lwrist -30.148
lhand -23.406 -22.1438
lfingers 7.12502
lthumb 3.05106 7.81408
rfemur -11.0606 5.96674 13.9516
rtibia 13.3262
rfoot -23.5436 -4.49659
rtoes -37.4365
lfemur -5.82247 -7.54247 -17.9909
ltibia 6.05705
lfoot -17.7526 16.4525
ltoes -43.7496
6
root 9.50131 16.7917 -35.8887 9.67875 -6.92204 1.10954
lowerback -5.91047 1.04716 -6.91505
upperback 1.59614 1.88455 1.13231
thorax 4.7331 0.714496 5.25882
lowerneck -0.525385 1.01872 -4.22701
upperneck 10.7073 0.87929 6.91018
head 3.54957 0.524076 3.10243
rclavicle 7.85199e-015 -4.96962e-015
rhumerus -44.1444 -44.5358 -54.9285
rradius 16.191
rwrist 33.5341
rhand -18.1273 -42.4739
rfingers 7.12502
rthumb 8.14752 -72.2969
lclavicle 7.85199e-015 -4.96962e-015
lhumerus -26.5398 6.64241 86.3971
lradius 16.6821
lwrist -29.2324
lhand -23.5752 -22.1491
lfingers 7.12502
lthumb 2.88761 7.81106
rfemur -11.2034 6.26634 13.8164
rtibia 13.9493
rfoot -26.4335 -5.06911
rtoes -36.1381
lfemur -5.62097 -7.5427 -18.1624
ltibia 6.11472
lfoot -17.8273 16.464
ltoes -45.7407
7
root 9.47867 16.7795 -35.8781 9.59218 -5.97402 1.60094
lowerback -5.65938 0.705733 -7.00251
upperback 1.51238 1.41554 1.09604
thorax 4.5678 0.488909 5.21931
lowerneck -6.69572 0.481269 -4.93762
upperneck 19.2856 -0.24426 8.37016
head 6.96793 0.228258 3.53176
rclavicle -5.31749e-015 2.98177e-015
rhumerus -44.5771 -44.4442 -54.5388
rradius 16.1239
rwrist 33.2688
rhand -17.8879 -42.2468
rfingers 7.12502
rthumb 8.37848 -72.0606
lclavicle -5.31749e-015 2.98177e-015
lhumerus -26.6473 5.96012 86.6513
lradius 17.0546
lwrist -28.7815
lhand -23.7799 -22.8419
lfingers 7.12502
lthumb 2.68993 7.1209
rfemur -10.879 6.76054 13.2047
rtibia 12.8583
rfoot -30.8306 -4.63208
rtoes -28.1101
lfemur -5.77949 -8.36909 -18.6063
ltibia 6.34012
lfoot -17.7492 16.2882
ltoes -47.1387
8
root 9.45542 16.7679 -35.8661 9.44427 -5.01778 2.43419
lowerback -5.80642 0.371528 -7.31313
upperback 1.70718 1.01956 0.912708
thorax 4.9129 0.266566 5.1722
lowerneck -11.2141 -0.167874 -4.86334
upperneck 24.493 -1.31942 8.38656
head 9.64413 -0.1462 3.61053
rclavicle 1.59525e-014 3.37934e-015
rhumerus -43.7543 -43.4212 -55.9718
rradius 16.5261
rwrist 31.3092
rhand -19.1217 -41.6511
rfingers 7.12502
rthumb 7.18768 -71.5091
lclavicle 1.59525e-014 3.37934e-015
lhumerus -26.2827 5.51282 86.8509
lradius 17.2723
lwrist -28.7347
lhand -23.8849 -22.9339
lfingers 7.12502
lthumb 2.58852 7.0301
rfemur -10.5261 5.47803 12.4907
rtibia 14.2763
rfoot -32.031 -6.71098
rtoes -33.4222
lfemur -5.93353 -9.21625 -19.4832
ltibia 6.65075
lfoot -18.0437 15.8332
ltoes -47.2349
9
root 9.42742 16.7556 -35.8538 9.26284 -4.22207 3.48715
lowerback -5.67396 0.10574 -7.83345
upperback 1.72931 0.707223 0.644117
thorax 4.90653 0.0998396 5.15131
lowerneck -11.1136 0.170156 -6.5345
upperneck 25.1398 -1.19661 11.038
head 9.85013 0.0437313 4.89381
rclavicle -2.83268e-015 3.57812e-015
rhumerus -43.9952 -43.2222 -56.0568
rradius 16.7046
rwrist 30.7911
rhand -20.0337 -59.6552
rfingers 7.12502
rthumb 6.3073 -89.5413
lclavicle -2.83268e-015 3.57812e-015
lhumerus -26.216 4.91494 87.0234
lradius 17.4893
lwrist -28.6692
lhand -23.8032 -22.6048
lfingers 7.12502
lthumb 2.66742 7.35832
rfemur -10.5647 4.53439 11.4947
rtibia 15.7131
rfoot -32.8361 -8.21382
rtoes -37.2459
lfemur -6.01365 -9.97654 -20.6413
ltibia 6.93514
lfoot -18.3172 15.4647
ltoes -47.3973
